<svg width="256" height="256" viewBox="0 0 256 256" fill="none" xmlns="http://www.w3.org/2000/svg">
<path d="M82.291 45.3669C82.291 20.3114 102.602 -2.19042e-06 127.658 0C152.713 1.07284e-05 173.025 20.3115 173.025 45.3669L82.291 45.3669Z" fill="#2955D3"/>
<path d="M11 255.999C11 191.571 63.2299 139.341 127.658 139.341C192.086 139.342 244.315 191.571 244.315 256L11 255.999Z" fill="#2955D3"/>
<path d="M127.658 22.6846C192.086 22.6848 244.315 74.9139 244.315 139.342C244.315 203.77 192.086 256 127.658 256C63.2299 256 11 203.77 11 139.342C11.0003 74.9137 63.2301 22.6846 127.658 22.6846ZM127.658 81.0127C95.4448 81.013 69.3296 107.127 69.3291 139.341H185.987C185.987 107.127 159.872 81.0127 127.658 81.0127Z" fill="#2955D3"/>
</svg>
