<svg width="256" height="256" viewBox="0 0 256 256" fill="none" xmlns="http://www.w3.org/2000/svg">
<path d="M82.6328 45.3669C82.6328 20.3115 102.944 -2.19042e-06 128 0C153.055 1.07285e-05 173.367 20.3115 173.367 45.367L82.6328 45.3669Z" fill="#2955D3"/>
<path d="M128 22.6841C192.428 22.6841 244.658 74.9139 244.658 139.342C244.658 158.358 240.106 176.309 232.036 192.17C230.728 195.586 230.67 199.37 231.858 202.82C240.04 218.767 244.658 236.844 244.658 256H209.661C209.661 256 200.587 256.324 178.552 224.891C177.694 223.667 178.55 255.922 178.552 256H11.3418C11.3419 237.07 15.8511 219.193 23.8535 203.384C25.3903 199.429 25.2494 194.974 23.4297 191.112C23.3504 190.952 23.273 190.791 23.1943 190.63C23.118 190.482 23.0394 190.334 22.958 190.188L22.9961 190.226C15.5304 174.848 11.3418 157.584 11.3418 139.342C11.3418 74.9141 63.5718 22.6843 128 22.6841ZM128 81.0122C95.7859 81.0122 69.671 107.127 69.6709 139.341H186.329C186.329 107.127 160.214 81.0123 128 81.0122Z" fill="#2955D3"/>
<rect x="85.2246" y="110.177" width="31.1088" height="15.5544" rx="7.77719" fill="#2955D3"/>
<rect x="139.665" y="110.177" width="31.1088" height="15.5544" rx="7.77719" fill="#2955D3"/>
</svg>
